<?xml version="1.0" encoding="UTF-8"?>
<svg id="_レイヤー_2" data-name="レイヤー 2" xmlns="http://www.w3.org/2000/svg" viewBox="0 0 392.89 142.84">
  <defs>
    <style>
      .cls-1 {
        fill: #231815;
      }
    </style>
  </defs>
  <g id="_レイヤー_1-2" data-name="レイヤー 1">
    <g>
      <path class="cls-1" d="M127.33,131.23c-.99,3.85-2.48,7.89-3.71,10.98l-2.38-1.06c1.33-2.79,2.77-5.94,3.73-9.69-1.06.07-2.12.13-3.15.13l-.11-2.3c1.08.05,2.39.04,3.75-.05.09-.49.18-.99.25-1.49.05-.36.09-.79.07-1.13l2.52.27c-.14.38-.22.72-.29,1.15-.05.32-.11.63-.18.95.94-.13,1.82-.29,2.59-.49l.16,2.21c-.99.2-2.11.38-3.26.52ZM136.22,139.46l.18,2.14c-.94.16-1.93.34-3.22.34-3.15,0-5.26-.95-5.26-2.95,0-.96.49-1.71.88-2.2l2.03.43c-.4.31-.72.7-.72,1.3,0,1.03,1.1,1.35,2.86,1.35,1.13,0,2.45-.14,3.24-.41ZM133,132.09c1.21,0,2.45.14,3.17.31l-.25,2.14c-1.15-.22-1.91-.31-2.86-.31-1.03,0-2.48.07-3.93.52l-.14-2.18c1.33-.32,2.92-.49,4.02-.49ZM132.46,127.68l1.12-.72c.61.47,1.55,1.5,1.93,2.04l-1.15.79c-.4-.63-1.19-1.55-1.89-2.11ZM134.4,126.57l1.06-.7c.65.43,1.57,1.42,1.96,1.98l-1.1.76c-.38-.56-1.12-1.48-1.93-2.03Z"/>
      <path class="cls-1" d="M156.99,137.77l-.25,2.67c-.74.34-2.14.86-3.24.86-1.69,0-2.12-1.15-2.12-2.36,0-1.91.67-5.6.67-6.45,0-.68-.25-.86-.63-.86-.86,0-3.62,2-5.55,4.03.02,2.97.09,5.8.14,6.59h-2.29c.04-.72.04-2.36.04-4.48-.74.86-1.62,1.93-2.09,2.43l-1.31-1.96c.81-.61,2.43-2.23,3.42-3.38,0-.68.02-1.46.04-2.27-.68.18-1.64.47-2.77.86l-.29-2.25c.74-.09,1.96-.32,3.12-.58.05-1.94.11-3.62.11-3.85l2.2.16c-.07.4-.16,1.75-.22,3.21.22-.05.38-.11.49-.14l.56,1.31c-.23.34-.7.86-1.12,1.48v.29c2.18-1.89,4.56-3.76,5.89-3.76,1.75,0,2.63,1.15,2.63,2.54,0,1.31-.77,5.71-.77,6.57,0,.38.13.58.47.58.63,0,1.78-.43,2.9-1.22Z"/>
      <path class="cls-1" d="M170.76,134.25c0,5.15-1.22,7.8-3.67,7.8-.81,0-1.62-.27-2.21-.54-.09-.79-.25-1.93-.49-2.63.61.49,1.6.88,2.29.88,1.28,0,1.94-1.98,1.94-5.09,0-1.53-.32-2-.95-2-.22,0-.72.07-1.39.18-1.26,3.67-2.9,7.56-4.12,9.31l-2.12-1.26c1.42-1.87,2.84-4.86,3.85-7.63-1.4.25-2.75.5-3.19.52l-.41-2.32c1.03.02,2.68-.16,4.32-.32.23-.81.43-1.57.56-2.21.16-.86.22-1.48.22-1.76l2.56.5c-.18.38-.29.65-.36.9-.18.72-.41,1.51-.67,2.34.58-.04,1.12-.07,1.53-.07,1.13,0,2.32,1.12,2.32,3.42ZM176.56,136.9l-2.25,1.04c-.41-3.19-1.67-5.69-3.17-7.02l2.03-.92c1.84,1.64,3.15,4.7,3.38,6.9Z"/>
      <path class="cls-1" d="M190.85,139.73c-.31.77-.61,1.64-.81,2.25-4.23-.27-6.68-2.25-6.68-5.76,0-1.75,1.24-4.16,3.64-5.87-3.15.29-6.57.65-8.34.88l-.13-2.36c2.36-.16,10.77-.77,13.95-.99l.14,2.02c-.31.02-.65.04-1.03.07-4.2,1.26-5.94,4.14-5.94,6.16,0,2.58,1.75,3.38,5.19,3.6ZM192.74,134.43l-1.15.79c-.4-.63-1.19-1.55-1.89-2.11l1.12-.72c.61.47,1.55,1.5,1.93,2.04ZM194.67,133.28l-1.1.76c-.38-.56-1.12-1.48-1.93-2.03l1.06-.7c.65.43,1.57,1.42,1.96,1.98Z"/>
      <path class="cls-1" d="M214.63,135.08c-.31.52-.77,1.37-.94,1.78-1.46-.59-2.9-1.62-3.98-2.72-1.26,1.17-2.74,2.11-4.39,2.7-.11-.29-.36-.72-.61-1.13-.4.11-.81.23-1.21.36-.04-.29-.09-.59-.16-.9-.31.04-.68.09-1.08.13v6.68c0,.25,0,.54.04.76h-1.87c.04-.22.04-.5.04-.76v-6.48c-.79.09-1.53.16-1.98.2-.16.02-.54.09-.79.13l-.2-1.87c.2.02.61.04,1.01.02.13,0,.29,0,.47-.02.36-.43.76-.92,1.13-1.42-.81-.96-1.69-1.89-2.5-2.65l.99-1.46.63.65c.7-1.01,1.42-2.29,1.64-2.97l1.55,1.01-.18.27c-.47.94-1.17,2.02-1.84,2.99.23.25.45.52.67.79.92-1.35,1.69-2.66,2-3.46l1.55,1.03-.22.29c-.77,1.31-2.07,3.21-3.33,4.79.67-.05,1.35-.11,1.91-.18-.16-.5-.32-.97-.5-1.35l1.39-.38c.34.65.77,1.85,1.08,3.06,1.35-.54,2.59-1.26,3.62-2.16-.43-.59-.83-1.22-1.15-1.89-.56.76-1.15,1.4-1.75,1.87-.23-.43-.76-1.13-1.08-1.55,1.28-.95,2.75-3.01,3.22-4.84l1.8.34-.13.2c-.11.31-.22.61-.34.9h2.58l.18-.18c.32.22.97.67,1.49,1.13l-.23.11c-.49,1.42-1.22,2.74-2.16,3.89,1.01,1.06,2.38,1.82,3.66,2.3ZM198.34,136.47c.56.11,1.08.2,1.57.31,0,.05-.04.18-.05.34-.07,1.93-.27,3.37-.7,4.74-.29-.16-1.03-.54-1.53-.77.43-1.21.67-2.75.72-4.61ZM204.15,136.29c.27.83.59,2.43.76,3.96-.43.13-1.03.29-1.58.43-.05-1.3-.34-3.03-.56-4l1.39-.4ZM206.31,138.56c1.62.34,4.48,1.19,7.11,2.39-.27.59-.56,1.26-.85,1.89-2.02-1.1-5.02-2.14-7.17-2.65l.9-1.64ZM212.27,137.3l-.86,1.69c-1.1-.77-2.99-1.51-3.98-1.82l.86-1.42c1.01.25,2.57.79,3.98,1.55ZM211.07,129.48h-2.52c.31.72.72,1.42,1.22,2.05.54-.63.97-1.31,1.3-2.05Z"/>
      <path class="cls-1" d="M233.86,135.64c0,3.13-2.03,5.53-6.55,6.37-.31-.45-.77-1.24-1.5-1.84,4.25-.61,5.67-2.32,5.67-4.86,0-1.71-1.1-2.7-2.56-2.7-1.62,0-3.6,1.15-5.47,2.81.02,3.04.09,6.01.14,6.82h-2.29c.04-.72.04-2.36.04-4.48-.74.86-1.62,1.93-2.09,2.43l-1.31-1.96c.81-.61,2.43-2.23,3.42-3.38,0-.68.02-1.46.04-2.27-.68.18-1.64.47-2.77.86l-.29-2.25c.74-.09,1.96-.32,3.12-.58.05-1.94.11-3.62.11-3.85l2.2.16c-.07.4-.16,1.75-.22,3.21.22-.05.38-.11.49-.14l.56,1.31c-.23.34-.7.86-1.12,1.48,0,.22-.02.41-.02.61,1.31-1.3,3.76-2.7,5.53-2.7,3.24,0,4.88,2.12,4.88,4.95Z"/>
      <path class="cls-1" d="M249.95,137.14c0,3.6-3.21,5.13-6.3,5.13-2.12,0-4.09-1.06-4.09-2.93,0-1.46,1.15-2.52,2.86-2.52,2.29,0,3.6,1.1,3.85,2.79.85-.49,1.41-1.28,1.41-2.48,0-1.62-1.03-2.52-2.94-2.52-2.09,0-4.2.83-6.18,3.08l-1.64-1.6c1.73-1.35,5.06-4.54,7.18-6.61-1.66.25-3.6.49-5.11.58l-.32-2.25c1.53.11,6.05-.23,7.76-.5.07-.02.22-.05.31-.13l1.53,1.46c-.16.07-.4.2-.52.29-1.13.86-3.13,2.61-5.04,4.38.74-.31,1.51-.49,2.36-.49,2.74,0,4.88,1.51,4.88,4.34ZM244.12,140.21c-.07-1.13-.65-1.62-1.55-1.62-.45,0-.94.32-.94.74,0,.58.61.92,1.67.92.27,0,.54-.02.81-.04Z"/>
      <path class="cls-1" d="M259.19,131.46c-.9,2.75-2.2,5.71-3.49,7.9l-2.23-1.21c1.35-1.85,2.56-4.25,3.39-6.55-.92.02-1.84,0-2.72-.11l.02-2.18c1.04.13,2.21.14,3.38.09.2-.72.32-1.4.4-2.04.02-.27.05-.52.05-.79l2.45.38c-.14.29-.29.74-.31.88-.07.43-.18.88-.29,1.35,1.03-.13,1.95-.29,2.63-.47l.13,2.21c-.92.2-2.11.4-3.4.52ZM264.82,137.37c1.53.56,2.75,1.24,3.62,1.91l-1.01,2.09c-.76-.72-1.66-1.37-2.58-1.82-.09,1.8-1.48,3.1-3.71,3.1-2.03,0-3.75-1.22-3.75-3.08,0-1.57,1.57-2.67,3.67-2.67.52,0,1.04.04,1.53.09l-.07-2.43c-.02-.77-.02-1.17,0-1.66l2.32.25c-.09.31-.11,1.19-.09,2.07l.05,2.14ZM262.68,139.17l-.02-.31c-.52-.13-1.03-.2-1.46-.2-1.04,0-1.66.29-1.66,1.01,0,.63.68.99,1.58.99.99,0,1.57-.68,1.55-1.49ZM268.03,133.26c-1.08-1.06-2.95-2-4.27-2.3l.95-1.93c1.44.4,3.64,1.51,4.46,2.34l-1.15,1.89Z"/>
      <path class="cls-1" d="M272.11,140.45c0-1.3,1.1-2.39,2.39-2.39s2.39,1.1,2.39,2.39-1.1,2.39-2.39,2.39-2.39-1.1-2.39-2.39ZM275.96,140.45c0-.79-.67-1.46-1.46-1.46s-1.46.67-1.46,1.46.67,1.46,1.46,1.46,1.46-.67,1.46-1.46Z"/>
    </g>
    <g>
      <path class="cls-1" d="M16.16,69.44h-5.72v27.24h-4.62v-27.24H0v-4.15h16.16v4.15Z"/>
      <path class="cls-1" d="M16.34,86.71c0-5.77,4.62-10.43,10.39-10.43s10.39,4.71,10.39,10.43-4.66,10.43-10.39,10.43-10.39-4.66-10.39-10.43ZM32.69,86.71c0-3.55-2.54-6.23-5.96-6.23s-5.96,2.63-5.96,6.23,2.49,6.19,5.96,6.19,5.96-2.63,5.96-6.19Z"/>
      <path class="cls-1" d="M46.63,88.14l-.65.65v7.89h-4.25v-19.94h4.25v7.2l6.51-7.2h5.49l-8.59,8.63,9.1,11.31h-5.4l-6.46-8.54Z"/>
      <path class="cls-1" d="M76.96,76.73l-8.36,16.39h5.12l-1.34,3.55h-10.06l3.6-7.43-6.23-12.51h4.8l3.79,8.59h.09l3.83-8.59h4.76Z"/>
      <path class="cls-1" d="M79.17,86.71c0-5.77,4.62-10.43,10.39-10.43s10.39,4.71,10.39,10.43-4.66,10.43-10.39,10.43-10.39-4.66-10.39-10.43ZM95.51,86.71c0-3.55-2.54-6.23-5.96-6.23s-5.96,2.63-5.96,6.23,2.49,6.19,5.96,6.19,5.96-2.63,5.96-6.19Z"/>
      <path class="cls-1" d="M132.95,92.62l-1.11,4.06h-19.81l14.08-27.33h-12.33l1.15-4.06h18.05l-13.94,27.33h13.9Z"/>
      <path class="cls-1" d="M134.01,86.71c0-5.77,4.62-10.43,10.39-10.43s10.39,4.71,10.39,10.43-4.66,10.43-10.39,10.43-10.39-4.66-10.39-10.43ZM150.35,86.71c0-3.55-2.54-6.23-5.96-6.23s-5.96,2.63-5.96,6.23,2.49,6.19,5.96,6.19,5.96-2.63,5.96-6.19Z"/>
      <path class="cls-1" d="M164.29,88.14l-.65.65v7.89h-4.25v-19.94h4.25v7.2l6.51-7.2h5.49l-8.59,8.63,9.1,11.31h-5.4l-6.46-8.54Z"/>
      <path class="cls-1" d="M190.52,92.85v3.83h-11.45v-19.94h11.22v3.74h-6.97v4.15h6.97v3.55h-6.97v4.66h7.2Z"/>
      <path class="cls-1" d="M200.39,76.73v19.94h-4.25v-19.94h4.25Z"/>
      <path class="cls-1" d="M233.31,65.29h4.53v21.42c0,7.2-5.36,10.53-11.03,10.53s-11.13-3.32-11.13-10.53v-21.42h4.52v20.96c0,4.99,3.14,6.69,6.6,6.69s6.51-1.71,6.51-6.69v-20.96Z"/>
      <path class="cls-1" d="M262.48,76.73v19.94h-4.57l-8.63-13.85h-.14v13.85h-4.15v-19.94h4.71l8.54,13.57h.09v-13.57h4.15Z"/>
      <path class="cls-1" d="M273.93,76.73v19.94h-4.25v-19.94h4.25Z"/>
      <path class="cls-1" d="M296.55,76.73l-7.39,20.18h-3.55l-7.43-20.18h4.66l4.48,13.48h.09l4.53-13.48h4.62Z"/>
      <path class="cls-1" d="M312.24,92.85v3.83h-11.45v-19.94h11.22v3.74h-6.97v4.15h6.97v3.55h-6.97v4.66h7.2Z"/>
      <path class="cls-1" d="M322.91,88.78h-.79v7.89h-4.25v-19.94h6.51c4.2,0,7.11,2.08,7.11,6,0,2.95-1.71,4.94-4.39,5.68l6.14,8.26h-5.08l-5.26-7.89ZM322.12,85.28h1.29c2.17,0,3.83-.42,3.83-2.54s-1.66-2.45-3.83-2.45h-1.29v4.99Z"/>
      <path class="cls-1" d="M343.96,91.28c0-1.15-.55-1.85-3.23-3.23-3.32-1.71-4.34-3.19-4.34-6,0-3.83,3.05-5.77,6.37-5.77,2.17,0,4.06.55,5.22,1.52l-1.48,3.42c-1.06-.78-2.35-1.29-3.78-1.29s-2.17.92-2.17,1.85.42,1.52,2.45,2.63c2.72,1.48,5.13,2.86,5.13,6.69s-2.45,6.05-6.23,6.05c-2.17,0-4.76-.74-6.69-2.17l1.52-3.51c1.8,1.25,3.6,1.89,4.89,1.89,1.52,0,2.35-.83,2.35-2.08Z"/>
      <path class="cls-1" d="M357.81,76.73v19.94h-4.25v-19.94h4.25Z"/>
      <path class="cls-1" d="M373.59,80.7h-3.55v15.97h-4.25v-15.97h-3.55v-3.97h11.36v3.97Z"/>
      <path class="cls-1" d="M392.89,76.73l-8.36,16.39h5.12l-1.34,3.55h-10.06l3.6-7.43-6.23-12.51h4.8l3.79,8.59h.09l3.83-8.59h4.76Z"/>
    </g>
    <path class="cls-1" d="M174.17,0v41.78h44.56V0h-44.56ZM210.3,39.36l-15.33-15.31-1.63,1.63,13.7,13.69h-30.45l16.86-16.84h0s3.23,0,3.23,0l-20.1-20.1h6.01l15.32,15.31,1.63-1.63-13.7-13.69h30.45l-16.85,16.84h-3.25,0s0,0,0,0l20.11,20.11h-6ZM176.59,36.12V5.67s15.24,15.22,15.24,15.22l-15.24,15.22ZM202.71,19.26l13.59-13.58v13.58h-13.59ZM216.3,21.44v14.67s-14.67-14.67-14.67-14.67h14.67Z"/>
  </g>
</svg>