<?xml version="1.0" encoding="UTF-8"?>
<svg id="_レイヤー_2" data-name="レイヤー 2" xmlns="http://www.w3.org/2000/svg" viewBox="0 0 312.46 231.86">
  <defs>
    <style>
      .cls-1 {
        fill: #231815;
      }
    </style>
  </defs>
  <g id="LOGO">
    <g>
      <g>
        <path class="cls-1" d="M10.07,169.82h6.12l-5.93,9.09s.59-.2,1.38-.2c4.94,0,9.28,4.35,9.28,9.68s-4.35,9.68-10.47,9.68-10.47-4.35-10.47-9.68c0-3.75,2.37-6.72,2.37-6.72l7.7-11.85ZM14.81,188.39c0-2.57-1.78-4.35-4.35-4.35s-4.35,1.78-4.35,4.35,1.78,4.35,4.35,4.35,4.35-1.78,4.35-4.35Z"/>
        <path class="cls-1" d="M23.19,183.65c0-8.89,5.53-14.42,11.85-14.42s11.85,5.53,11.85,14.42-5.53,14.42-11.85,14.42-11.85-5.53-11.85-14.42ZM40.96,183.65c0-5.93-2.96-8.89-5.93-8.89s-5.93,2.96-5.93,8.89,2.96,8.89,5.93,8.89,5.93-2.96,5.93-8.89Z"/>
        <path class="cls-1" d="M53.29,183.45h-3.36v-4.94h1.78c1.38,0,2.17-.79,2.17-2.37v-3.56h4.74v5.93h4.35v4.94h-4.35v6.52c0,1.78.99,2.77,2.57,2.77,1.19,0,2.17-.4,2.17-.4v4.94s-1.58.59-3.56.59c-3.95,0-6.52-2.57-6.52-7.11v-7.31Z"/>
        <path class="cls-1" d="M67.03,169.82h5.33v11.06h.2s1.98-3.16,5.73-3.16c3.95,0,7.11,3.16,7.11,8.1v11.65h-5.33v-10.86c0-2.37-1.38-3.75-3.56-3.75-2.37,0-4.15,1.78-4.15,4.35v10.27h-5.33v-27.65Z"/>
        <path class="cls-1" d="M107.12,169.82h6.72l10.67,27.65h-6.32l-2.37-6.32h-10.67l-2.37,6.32h-6.32l10.67-27.65ZM113.84,185.82l-3.28-9.09h-.16l-3.28,9.09h6.72Z"/>
        <path class="cls-1" d="M127.16,178.11h5.33v2.77h.2s1.98-3.16,5.73-3.16c3.95,0,7.11,3.16,7.11,8.1v11.65h-5.33v-10.86c0-2.37-1.38-3.75-3.56-3.75-2.37,0-4.15,1.78-4.15,4.35v10.27h-5.33v-19.36Z"/>
        <path class="cls-1" d="M150.25,178.11h5.33v2.77h.2s1.98-3.16,5.73-3.16c3.95,0,7.11,3.16,7.11,8.1v11.65h-5.33v-10.86c0-2.37-1.38-3.75-3.56-3.75-2.37,0-4.15,1.78-4.15,4.35v10.27h-5.33v-19.36Z"/>
        <path class="cls-1" d="M175.98,169.62c1.66,0,3.04,1.38,3.04,2.96s-1.38,2.96-3.08,2.96-3.04-1.38-3.04-2.96,1.38-2.96,3.08-2.96ZM173.3,178.11h5.33v19.36h-5.33v-19.36Z"/>
        <path class="cls-1" d="M180.87,178.11h5.73l4.46,13.04h.16l4.46-13.04h5.73l-7.31,19.36h-5.93l-7.31-19.36Z"/>
        <path class="cls-1" d="M220.34,194.71s-2.96,3.16-8.3,3.16c-5.73,0-10.27-4.54-10.27-10.07s4.54-10.07,10.07-10.07,9.68,4.35,9.68,9.68c0,1.38-.2,2.37-.2,2.37h-14.02c.59,1.78,2.17,3.36,5.14,3.36,3.36,0,5.14-2.17,5.14-2.17l2.77,3.75ZM215.99,185.82c-.59-1.78-2.17-3.36-4.35-3.36s-3.75,1.58-4.35,3.36h8.69Z"/>
        <path class="cls-1" d="M225.2,178.11h5.33v2.77h.2s1.98-3.16,5.73-3.16h.39v5.73s-.59-.2-1.78-.2c-2.57,0-4.54,1.98-4.54,5.14v9.09h-5.33v-19.36Z"/>
        <path class="cls-1" d="M241.36,190.95s1.98,2.17,5.14,2.17c1.78,0,2.37-.59,2.37-1.38,0-2.17-9.88-1.78-9.88-8.1,0-3.16,2.77-5.93,7.7-5.93s7.51,2.96,7.51,2.96l-3.16,3.36s-1.58-1.58-4.35-1.58c-1.38,0-1.97.59-1.97,1.19,0,2.17,9.88,1.78,9.88,8.1,0,3.36-2.77,6.12-8.1,6.12s-8.3-3.56-8.3-3.56l3.16-3.36Z"/>
        <path class="cls-1" d="M268.8,195.1h-.2s-1.98,2.77-5.73,2.77c-3.56,0-5.93-2.37-5.93-5.53s2.17-5.57,5.73-6.2l6.12-1.11c-.2-1.38-1.38-2.57-3.36-2.57-2.77,0-4.35,2.17-4.35,2.17l-3.16-3.16s2.77-3.75,7.9-3.75,8.3,3.36,8.3,7.7v12.05h-5.33v-2.37ZM268.8,188.78l-4.35.79c-1.38.24-2.17.99-2.17,1.98,0,1.19.79,1.98,2.37,1.98,2.37,0,4.15-1.78,4.15-4.35v-.4Z"/>
        <path class="cls-1" d="M278.85,178.11h5.33v2.77h.2s1.98-3.16,5.73-3.16h.39v5.73s-.59-.2-1.78-.2c-2.57,0-4.54,1.98-4.54,5.14v9.09h-5.33v-19.36Z"/>
        <path class="cls-1" d="M293.5,200.24s.99.4,2.17.4c1.78,0,2.8-.99,3.36-2.37l.4-.99-7.51-19.16h5.73l4.54,12.84h.2l4.35-12.84h5.73l-7.9,20.94c-1.62,4.35-3.95,6.72-7.51,6.72-1.98,0-3.56-.59-3.56-.59v-4.94Z"/>
      </g>
      <g>
        <path class="cls-1" d="M54.19,216.25h-3.22v15.3h-2.59v-15.3h-3.27v-2.33h9.08v2.33Z"/>
        <path class="cls-1" d="M54.29,225.95c0-3.24,2.59-5.86,5.83-5.86s5.83,2.64,5.83,5.86-2.62,5.86-5.83,5.86-5.83-2.62-5.83-5.86ZM63.47,225.95c0-2-1.43-3.5-3.34-3.5s-3.34,1.48-3.34,3.5,1.4,3.47,3.34,3.47,3.34-1.48,3.34-3.47Z"/>
        <path class="cls-1" d="M71.3,226.75l-.36.36v4.43h-2.39v-11.2h2.39v4.04l3.66-4.04h3.09l-4.82,4.85,5.11,6.35h-3.03l-3.63-4.8Z"/>
        <path class="cls-1" d="M88.33,220.35l-4.69,9.2h2.88l-.75,2h-5.65l2.02-4.17-3.5-7.03h2.7l2.13,4.82h.05l2.15-4.82h2.67Z"/>
        <path class="cls-1" d="M89.57,225.95c0-3.24,2.59-5.86,5.83-5.86s5.83,2.64,5.83,5.86-2.62,5.86-5.83,5.86-5.83-2.62-5.83-5.86ZM98.75,225.95c0-2-1.43-3.5-3.34-3.5s-3.34,1.48-3.34,3.5,1.4,3.47,3.34,3.47,3.34-1.48,3.34-3.47Z"/>
        <path class="cls-1" d="M119.78,229.27l-.62,2.28h-11.12l7.91-15.35h-6.92l.65-2.28h10.14l-7.83,15.35h7.8Z"/>
        <path class="cls-1" d="M120.37,225.95c0-3.24,2.59-5.86,5.83-5.86s5.83,2.64,5.83,5.86-2.62,5.86-5.83,5.86-5.83-2.62-5.83-5.86ZM129.55,225.95c0-2-1.43-3.5-3.35-3.5s-3.34,1.48-3.34,3.5,1.4,3.47,3.34,3.47,3.35-1.48,3.35-3.47Z"/>
        <path class="cls-1" d="M137.38,226.75l-.36.36v4.43h-2.39v-11.2h2.39v4.04l3.66-4.04h3.09l-4.82,4.85,5.11,6.35h-3.03l-3.63-4.8Z"/>
        <path class="cls-1" d="M152.11,229.4v2.15h-6.43v-11.2h6.3v2.1h-3.92v2.33h3.92v2h-3.92v2.62h4.05Z"/>
        <path class="cls-1" d="M157.66,220.35v11.2h-2.39v-11.2h2.39Z"/>
        <path class="cls-1" d="M176.14,213.92h2.54v12.03c0,4.04-3.01,5.91-6.2,5.91s-6.25-1.87-6.25-5.91v-12.03h2.54v11.77c0,2.8,1.76,3.76,3.71,3.76s3.66-.96,3.66-3.76v-11.77Z"/>
        <path class="cls-1" d="M192.53,220.35v11.2h-2.57l-4.85-7.78h-.08v7.78h-2.33v-11.2h2.64l4.8,7.62h.05v-7.62h2.33Z"/>
        <path class="cls-1" d="M198.96,220.35v11.2h-2.39v-11.2h2.39Z"/>
        <path class="cls-1" d="M211.66,220.35l-4.15,11.33h-2l-4.17-11.33h2.62l2.51,7.57h.05l2.54-7.57h2.59Z"/>
        <path class="cls-1" d="M220.48,229.4v2.15h-6.43v-11.2h6.3v2.1h-3.92v2.33h3.92v2h-3.92v2.62h4.05Z"/>
        <path class="cls-1" d="M226.46,227.11h-.44v4.43h-2.39v-11.2h3.66c2.36,0,3.99,1.17,3.99,3.37,0,1.66-.96,2.77-2.46,3.19l3.45,4.64h-2.85l-2.96-4.43ZM226.02,225.14h.73c1.22,0,2.15-.23,2.15-1.43s-.93-1.37-2.15-1.37h-.73v2.8Z"/>
        <path class="cls-1" d="M238.29,228.51c0-.65-.31-1.04-1.82-1.81-1.87-.96-2.44-1.79-2.44-3.37,0-2.15,1.71-3.24,3.58-3.24,1.22,0,2.28.31,2.93.86l-.83,1.92c-.6-.44-1.32-.73-2.13-.73s-1.22.52-1.22,1.04.23.86,1.37,1.48c1.53.83,2.88,1.61,2.88,3.76s-1.37,3.4-3.5,3.4c-1.22,0-2.67-.41-3.76-1.22l.86-1.97c1.01.7,2.02,1.06,2.75,1.06.86,0,1.32-.47,1.32-1.17Z"/>
        <path class="cls-1" d="M246.06,220.35v11.2h-2.39v-11.2h2.39Z"/>
        <path class="cls-1" d="M254.93,222.58h-2v8.97h-2.39v-8.97h-2v-2.23h6.38v2.23Z"/>
        <path class="cls-1" d="M265.77,220.35l-4.69,9.2h2.88l-.75,2h-5.65l2.02-4.17-3.5-7.03h2.7l2.13,4.82h.05l2.15-4.82h2.67Z"/>
      </g>
      <path class="cls-1" d="M215.33,47.77c-14.11,0-26.63,6.88-34.4,17.44-8.45-23.61-31.06-40.55-57.56-40.55-30.33,0-55,24.62-55,54.89,0,26.91,21.91,48.8,48.84,48.8,23.54,0,42.68-19.13,42.68-42.64,0-20.16-16.42-36.56-36.59-36.56-16.78,0-30.44,13.67-30.44,30.47,0,13.44,10.96,24.37,24.43,24.37,3.31,0,6-2.69,6-6s-2.69-6-6-6c-6.85,0-12.43-5.55-12.43-12.37,0-10.19,8.27-18.47,18.44-18.47,13.56,0,24.59,11.02,24.59,24.56,0,16.89-13.76,30.64-30.68,30.64-20.31,0-36.84-16.51-36.84-36.8,0-23.65,19.29-42.89,43-42.89,27.08,0,49.11,21.99,49.11,49.03,0,30.4-24.78,55.13-55.25,55.13-33.83,0-61.36-27.52-61.36-61.35,0-37.21,30.24-67.47,67.42-67.47h91.93c3.31,0,6-2.69,6-6s-2.69-6-6-6h-91.93C79.5,0,43.87,35.65,43.87,79.47c0,40.45,32.91,73.35,73.36,73.35,18.74,0,35.7-7.7,47.91-20.08,11.5,11.94,27.3,18.72,44.03,18.72,30.33,0,55-24.62,55-54.89,0-26.91-21.91-48.8-48.84-48.8ZM209.17,139.46c-13.92,0-27.04-5.83-36.35-16.05,2.55-3.74,4.74-7.75,6.5-11.98,6.63,9.39,17.56,15.54,29.91,15.54,16.78,0,30.44-13.67,30.44-30.47,0-13.44-10.96-24.37-24.43-24.37-3.31,0-6,2.69-6,6s2.69,6,6,6c6.85,0,12.43,5.55,12.43,12.37,0,10.19-8.27,18.47-18.44,18.47-13.56,0-24.59-11.02-24.59-24.56,0-16.9,13.76-30.64,30.68-30.64,20.31,0,36.84,16.51,36.84,36.8,0,23.65-19.29,42.89-43,42.89Z"/>
    </g>
  </g>
</svg>