<?xml version="1.0" encoding="UTF-8"?>
<svg id="_レイヤー_2" data-name="レイヤー 2" xmlns="http://www.w3.org/2000/svg" viewBox="0 0 375.95 58.64">
  <defs>
    <style>
      .cls-1 {
        fill: #231815;
      }
    </style>
  </defs>
  <g id="_レイヤー_1-2" data-name="レイヤー 1">
    <g>
      <path class="cls-1" d="M97.16,38.08h-4.24v20.16h-3.42v-20.16h-4.3v-3.07h11.96v3.07Z"/>
      <path class="cls-1" d="M97.3,50.85c0-4.27,3.42-7.72,7.69-7.72s7.69,3.48,7.69,7.72-3.45,7.72-7.69,7.72-7.69-3.45-7.69-7.72ZM109.39,50.85c0-2.63-1.88-4.61-4.41-4.61s-4.41,1.95-4.41,4.61,1.84,4.58,4.41,4.58,4.41-1.95,4.41-4.58Z"/>
      <path class="cls-1" d="M119.71,51.91l-.48.48v5.84h-3.14v-14.76h3.14v5.33l4.82-5.33h4.07l-6.35,6.39,6.73,8.37h-4l-4.78-6.32Z"/>
      <path class="cls-1" d="M142.15,43.47l-6.18,12.13h3.79l-.99,2.63h-7.45l2.66-5.5-4.61-9.26h3.55l2.8,6.35h.07l2.84-6.35h3.52Z"/>
      <path class="cls-1" d="M143.79,50.85c0-4.27,3.42-7.72,7.69-7.72s7.69,3.48,7.69,7.72-3.45,7.72-7.69,7.72-7.69-3.45-7.69-7.72ZM155.89,50.85c0-2.63-1.88-4.61-4.41-4.61s-4.41,1.95-4.41,4.61,1.84,4.58,4.41,4.58,4.41-1.95,4.41-4.58Z"/>
      <path class="cls-1" d="M183.59,55.23l-.82,3.01h-14.66l10.42-20.23h-9.12l.85-3.01h13.36l-10.32,20.22h10.28Z"/>
      <path class="cls-1" d="M184.37,50.85c0-4.27,3.42-7.72,7.69-7.72s7.69,3.48,7.69,7.72-3.45,7.72-7.69,7.72-7.69-3.45-7.69-7.72ZM196.47,50.85c0-2.63-1.88-4.61-4.41-4.61s-4.41,1.95-4.41,4.61,1.85,4.58,4.41,4.58,4.41-1.95,4.41-4.58Z"/>
      <path class="cls-1" d="M206.78,51.91l-.48.48v5.84h-3.14v-14.76h3.14v5.33l4.82-5.33h4.07l-6.35,6.39,6.73,8.37h-4l-4.78-6.32Z"/>
      <path class="cls-1" d="M226.19,55.4v2.84h-8.47v-14.76h8.3v2.77h-5.16v3.07h5.16v2.63h-5.16v3.45h5.33Z"/>
      <path class="cls-1" d="M233.5,43.47v14.76h-3.14v-14.76h3.14Z"/>
      <path class="cls-1" d="M257.86,35h3.35v15.85c0,5.33-3.96,7.79-8.17,7.79s-8.23-2.46-8.23-7.79v-15.85h3.35v15.51c0,3.69,2.32,4.95,4.89,4.95s4.82-1.26,4.82-4.95v-15.51Z"/>
      <path class="cls-1" d="M279.45,43.47v14.76h-3.38l-6.39-10.25h-.1v10.25h-3.07v-14.76h3.48l6.32,10.04h.07v-10.04h3.07Z"/>
      <path class="cls-1" d="M287.92,43.47v14.76h-3.14v-14.76h3.14Z"/>
      <path class="cls-1" d="M304.66,43.47l-5.47,14.93h-2.63l-5.5-14.93h3.45l3.31,9.98h.07l3.35-9.98h3.42Z"/>
      <path class="cls-1" d="M316.27,55.4v2.84h-8.47v-14.76h8.3v2.77h-5.16v3.07h5.16v2.63h-5.16v3.45h5.33Z"/>
      <path class="cls-1" d="M324.16,52.39h-.58v5.84h-3.14v-14.76h4.82c3.11,0,5.26,1.54,5.26,4.44,0,2.19-1.26,3.66-3.25,4.2l4.54,6.12h-3.76l-3.89-5.84ZM323.58,49.8h.96c1.61,0,2.84-.31,2.84-1.88s-1.23-1.81-2.84-1.81h-.96v3.69Z"/>
      <path class="cls-1" d="M339.74,54.24c0-.85-.41-1.37-2.39-2.39-2.46-1.26-3.21-2.36-3.21-4.44,0-2.84,2.25-4.27,4.71-4.27,1.61,0,3.01.41,3.86,1.13l-1.09,2.53c-.79-.58-1.74-.96-2.8-.96s-1.61.68-1.61,1.37.31,1.13,1.81,1.95c2.02,1.09,3.79,2.12,3.79,4.95s-1.81,4.48-4.61,4.48c-1.61,0-3.52-.55-4.95-1.61l1.13-2.6c1.33.92,2.66,1.4,3.62,1.4,1.13,0,1.74-.62,1.74-1.54Z"/>
      <path class="cls-1" d="M349.99,43.47v14.76h-3.14v-14.76h3.14Z"/>
      <path class="cls-1" d="M361.67,46.41h-2.63v11.82h-3.14v-11.82h-2.63v-2.94h8.4v2.94Z"/>
      <path class="cls-1" d="M375.95,43.47l-6.18,12.13h3.79l-.99,2.63h-7.45l2.66-5.5-4.61-9.26h3.55l2.8,6.35h.07l2.84-6.35h3.52Z"/>
    </g>
    <g>
      <path class="cls-1" d="M107.92,24.39c-3.72-1.26-7.51-3.69-10.16-6.28l.08,7.06h-2.78l.08-6.98c-2.54,2.57-6.18,4.95-9.71,6.2-.24-.53-1.15-1.6-1.74-2.27,3.16-.94,7.19-2.99,9.41-5.08h-5.51V7.14h7.46v-1.93h-10.51v-2.51h10.51V.37h2.78v2.33h10.86v2.51h-10.86v1.93h7.54v9.89h-5.56c2.33,2.03,6.44,3.98,9.63,4.92-.48.72-1.28,1.87-1.52,2.43ZM90.27,10.99h4.79v-1.6h-4.79v1.6ZM95.06,14.79v-1.66h-4.79v1.66h4.79ZM97.84,9.39v1.6h4.84v-1.6h-4.84ZM102.68,13.13h-4.84v1.66h4.84v-1.66Z"/>
      <path class="cls-1" d="M111.24,21.2c1.93-.78,4.81-2.78,6.04-4.81l2.25,1.42c-1.66,2.38-4.06,4.47-6.47,5.67-.32-.48-1.23-1.58-1.82-2.27ZM111.69,2.75h10.51V.08h3.05v2.67h10.75v2.54h-24.31v-2.54ZM119.8,25.27c-.29-.7-.99-1.95-1.42-2.83.03,0,1.23.11,2.38.11,1.31,0,1.71-.29,1.71-.86v-6.39h-6.69v-7.73h16.1v7.73h-6.47v7.11c0,1.79-1.47,2.86-5.62,2.86ZM129.05,13.02v-3.18h-10.43v3.18h10.43ZM136.62,21.31c-.61.75-1.5,1.82-1.82,2.3-2.01-1.07-4.81-3.29-6.71-5.56l2.22-1.52c1.31,1.66,4.36,3.93,6.31,4.79Z"/>
      <path class="cls-1" d="M163.55,21.02c-.24.86-.59,2.22-.75,2.84-2.03.27-6.36.51-9.47.51-4.22,0-7.7-.8-9.36-2.99-1.12,1.04-3.05,2.43-4.04,3.05-.19-.35-.86-1.71-1.28-2.65.8-.32,2.81-1.58,3.72-2.27v-6.12h-3.29v-2.51h5.96v8c.67,1.93,3.8,2.91,8.4,2.91,3.5,0,7.75-.4,10.11-.75ZM139.75,2.75l1.95-1.55c.96.96,2.46,2.7,3.64,4.55l-2.14,1.68c-.96-1.68-2.43-3.56-3.45-4.68ZM148.17,8.24l-2.19-1.6c.99-1.1,2.57-4.01,2.83-5.7l2.43.62c-.11.35-.27,1.02-.59,1.82h2.75V.56h2.51v2.81h5.83v2.3h-5.83v2.99h7.17v2.41h-16.95v-2.41h7.27v-2.99h-3.72c-.51,1.04-1.04,1.95-1.52,2.57ZM160.9,19.76h-12.3v-6.95h12.3v6.95ZM158.41,15.16h-7.3v2.25h7.3v-2.25Z"/>
      <path class="cls-1" d="M174.94,24.57v-11.93h-2.97c-.27,5.4-1.76,9.68-4.25,12.27-.48-.62-1.39-1.55-1.98-2.09,1.84-1.9,3.24-5.16,3.48-10.19h-2.99v-2.57h3.05v-5.62h-2.38V1.9h12.91v2.57h-2.14v5.62h2.33v2.57h-2.33v11.93h-2.73ZM174.94,4.47h-2.94v5.62h2.94v-5.62ZM179.92,24.63c-.29-.56-1.07-1.74-1.58-2.49,3.82-.96,8.72-4.44,10.86-7.65l1.74,2.22c-2.38,3.32-7.03,6.6-11.02,7.91ZM179.49,6.95c2.57-1.1,6.36-3.82,8.13-6.15l1.68,2.14c-2.57,2.75-5.54,5.08-8.34,6.5-.32-.64-1.04-1.79-1.47-2.49ZM188.53,7.43l1.52,2.33c-2.43,2.81-5.86,5.54-8.8,6.93-.4-.75-1.04-1.87-1.42-2.51,3.61-1.55,7.27-4.84,8.69-6.74Z"/>
      <path class="cls-1" d="M218.13,21.95c-.56.8-1.42,2.09-1.71,2.67-4.76-1.95-8.74-6.82-10.75-12.11-1.63,5.78-5.64,9.84-10.56,12.06-.43-.75-1.18-1.87-1.74-2.62,6.04-2.46,9.25-7.14,10.19-12.41h-9.44v-2.78h9.81c.08-.94.11-2.43.11-3.48l-.05-2.75h3.1c0,2.86-.11,5.21-.19,6.23h10.51v2.78h-9.87c1.55,5.94,5.91,10.51,10.59,12.41Z"/>
      <path class="cls-1" d="M234.71,22.19c0,1.74-1.44,2.78-5.51,2.78-.27-.67-.83-1.87-1.31-2.73.03,0,1.2.05,2.33.05,1.28,0,1.68-.27,1.68-.83v-3.53h-10.78v-2.57h10.78v-1.98h1.04c.64-.37,1.93-1.2,2.89-1.9h-9.28v-2.3h12.59l.96,1.58c-1.04.99-3.58,2.75-5.4,3.8v.8h10.05v2.57h-10.05v4.25ZM221.88,4.68h14.52c1.04-1.28,2.38-3.53,2.83-4.63l2.62.99c-.75,1.31-1.74,2.78-2.41,3.64h4.6v6.23h-2.7v-3.88h-16.74v3.88h-2.73v-6.23ZM223.78,1.34l2.59-.91c.62.69,1.82,2.14,2.43,3.21l-2.35,1.02c-.78-1.18-1.74-2.41-2.67-3.32ZM232.44,4.23c-.51-1.12-1.58-2.62-2.25-3.48l2.51-.75c.62.78,1.66,2.33,2.11,3.34l-2.38.88Z"/>
    </g>
    <path class="cls-1" d="M0,.37v57.83h61.73V.37H0ZM3.37,8.28l21.04,21.01L3.37,50.32V8.28ZM58.35,50.33l-20.27-20.26h20.27v20.26ZM58.35,27.01h-18.77l18.77-18.75v18.75ZM35.05,27.01h-4.54,0s0,0,0,0l27.84,27.83h-8.36l-21.17-21.15-2.27,2.27,18.9,18.89H3.38l23.31-23.29h0s4.51,0,4.51,0L3.37,3.75h8.38l21.16,21.14,2.27-2.27L16.29,3.75h42.04l-23.29,23.27Z"/>
  </g>
</svg>